# xmcd
#
# Track frame offsets:
#	150
#	18614
#	41595
#	86355
#	116844
#	146172
#	164017
#	195121
#
# Disc length: 3203 seconds
#
# Revision: 1
# Processed by: cddbd v1.5.2PL0 Copyright (c) Steve Scherf et al.
# Submitted via: audiograbber 1.83.01
#
DISCID=680c8108
DTITLE=Private Crier - Indianer Blues
DYEAR=2019
DGENRE=
TTITLE0=Indianer Blues
TTITLE1=Der 95. Traum
TTITLE2=Blues
TTITLE3=Die Befragung Des Ego
TTITLE4=Unducht
TTITLE5=Ina's Perlenzimmer
TTITLE6=Der Verbotene Raum /Cold At Midnight
TTITLE7=Watutinki
EXTD=
EXTT0=
EXTT1=
EXTT2=
EXTT3=
EXTT4=
EXTT5=
EXTT6=
EXTT7=
PLAYORDER=
